<svg data-bbox="36 20 128 160" viewBox="0 0 200 200" height="200" width="200" xmlns="http://www.w3.org/2000/svg" data-type="shape">
    <g>
        <path d="M115.867 51.686c0 9.066 7.35 16.416 16.416 16.416H164V68h-.062l-48-48h-.07v31.686z"></path>
        <path d="M103.867 63.686v-27.27c0-9.066-7.35-16.416-16.416-16.416H52.416C43.35 20 36 27.35 36 36.416v127.168C36 172.65 43.35 180 52.416 180h95.168c9.066 0 16.416-7.35 16.416-16.416V96.517c0-9.066-7.35-16.416-16.416-16.416h-27.301c-9.066.001-16.416-7.349-16.416-16.415z"></path>
    </g>
</svg>