<svg xmlns="http://www.w3.org/2000/svg" width="200" height="200" data-bbox="20 20.19 159.81 159.81" data-type="shape" viewBox="0 0 200 200"><g><path fill-rule="evenodd" d="M173 27c24.503 24.503-25 86-25 86 10.15 10.15 12.959 27.061 5 39l-11 15-24-24-12 12c-6.766 6.766-18.241 6.759-25 0l-36-36c-6.765-6.765-6.768-18.232 0-25l12-12-25-25 16-10c11.94-7.96 28.844-5.156 39 5 0 0 61.497-49.503 86-25zm-61 61c6.766 6.766 18.234 6.766 25 0s6.766-17.234 0-24-18.234-6.766-25 0-6.766 17.234 0 24zm-92 92l11-33c2.952-8.978 10.316-10.684 17-4l9 9c6.682 6.682 4.935 13.99-4 17l-33 11z" clip-rule="evenodd"/></g></svg>