<svg data-bbox="20 40.771 160 118.458" viewBox="0 0 200 200" height="200" width="200" xmlns="http://www.w3.org/2000/svg" data-type="shape">
    <g>
        <path d="M177.823 42.952c-1.404-1.406-3.272-2.181-5.26-2.181s-3.856.775-5.259 2.179l-98.323 98.322-36.283-36.28c-1.404-1.406-3.272-2.181-5.26-2.181s-3.856.775-5.258 2.178a7.383 7.383 0 0 0-2.18 5.259c0 1.988.774 3.855 2.179 5.259l41.543 41.543a7.488 7.488 0 0 0 5.259 2.179 7.486 7.486 0 0 0 5.259-2.179L177.82 53.468c1.406-1.404 2.18-3.272 2.18-5.259s-.774-3.856-2.177-5.257z"></path>
    </g>
</svg>